<svg width="20" height="21" viewBox="0 0 20 21" fill="none" xmlns="http://www.w3.org/2000/svg">
<g filter="url(#filter0_d_2156_604)">
<path d="M14.6172 9.00346V3.99643C14.6168 3.9241 14.5973 3.85316 14.5608 3.79075C14.5242 3.72834 14.4719 3.67667 14.409 3.64096L9.94023 1.12729C9.88002 1.09252 9.81172 1.07422 9.74219 1.07422C9.67266 1.07422 9.60435 1.09252 9.54414 1.12729L5.07539 3.64096C5.0125 3.67667 4.96014 3.72834 4.92358 3.79075C4.88703 3.85316 4.86758 3.9241 4.86719 3.99643V9.00346C4.86758 9.07578 4.88703 9.14673 4.92358 9.20913C4.96014 9.27154 5.0125 9.32321 5.07539 9.35893L9.54414 11.8726C9.60435 11.9074 9.67266 11.9257 9.74219 11.9257C9.81172 11.9257 9.88002 11.9074 9.94023 11.8726L14.409 9.35893C14.4719 9.32321 14.5242 9.27154 14.5608 9.20913C14.5973 9.14673 14.6168 9.07578 14.6172 9.00346V9.00346Z" stroke="white" stroke-width="1.3" stroke-linecap="round" stroke-linejoin="round"/>
<path d="M14.5602 3.78906L9.78672 6.50078L4.92188 3.78906" stroke="white" stroke-width="1.3" stroke-linecap="round" stroke-linejoin="round"/>
<path d="M9.78789 6.5L9.74219 11.9234" stroke="white" stroke-width="1.3" stroke-linecap="round" stroke-linejoin="round"/>
</g>
<defs>
<filter id="filter0_d_2156_604" x="0.216797" y="0.423828" width="19.0508" height="20.1514" filterUnits="userSpaceOnUse" color-interpolation-filters="sRGB">
<feFlood flood-opacity="0" result="BackgroundImageFix"/>
<feColorMatrix in="SourceAlpha" type="matrix" values="0 0 0 0 0 0 0 0 0 0 0 0 0 0 0 0 0 0 127 0" result="hardAlpha"/>
<feOffset dy="4"/>
<feGaussianBlur stdDeviation="2"/>
<feComposite in2="hardAlpha" operator="out"/>
<feColorMatrix type="matrix" values="0 0 0 0 0 0 0 0 0 0 0 0 0 0 0 0 0 0 0.25 0"/>
<feBlend mode="normal" in2="BackgroundImageFix" result="effect1_dropShadow_2156_604"/>
<feBlend mode="normal" in="SourceGraphic" in2="effect1_dropShadow_2156_604" result="shape"/>
</filter>
</defs>
</svg>
