<svg width="20" height="20" viewBox="0 0 20 20" fill="none" xmlns="http://www.w3.org/2000/svg">
<path d="M10 17.5C14.1421 17.5 17.5 14.1421 17.5 10C17.5 5.85786 14.1421 2.5 10 2.5C5.85786 2.5 2.5 5.85786 2.5 10C2.5 14.1421 5.85786 17.5 10 17.5Z" stroke="white" stroke-width="1.5" stroke-linecap="round" stroke-linejoin="round"/>
<path d="M5.54688 16.0391C6.66032 14.1964 8.23055 12.6724 10.1056 11.6144C11.9807 10.5564 14.0971 10.0004 16.25 10C16.6719 10 17.0859 10.0234 17.5 10.0625" stroke="white" stroke-width="1.5" stroke-linecap="round" stroke-linejoin="round"/>
<path d="M14.6875 4.14844C13.5161 5.58704 12.0388 6.7465 10.363 7.54248C8.68729 8.33847 6.8552 8.75097 5 8.75C4.21111 8.74911 3.42396 8.67588 2.64844 8.53125" stroke="white" stroke-width="1.5" stroke-linecap="round" stroke-linejoin="round"/>
<path d="M6.71094 3.25781C9.03634 4.62861 10.8573 6.71322 11.9031 9.20177C12.9489 11.6903 13.1637 14.4499 12.5156 17.0703" stroke="white" stroke-width="1.5" stroke-linecap="round" stroke-linejoin="round"/>
</svg>
